#N canvas 419 663 364 295 10;
#X obj 76 63 adc~;
#X obj 76 221 *~;
#X obj 115 221 *~;
#X obj 76 245 dac~;
#X obj 148 146 osc~;
#X obj 214 135 sig~;
#X obj 214 115 dbtorms;
#X obj 148 175 *~;
#X obj 148 121 +~ 1000;
#X obj 148 95 *~ 50;
#X obj 148 64 osc~ 1;
#X floatatom 211 84 5 0 0 0 - - -;
#X obj 211 63 r mag;
#X connect 0 0 1 0;
#X connect 0 1 2 0;
#X connect 1 0 3 0;
#X connect 2 0 3 1;
#X connect 4 0 7 0;
#X connect 5 0 7 1;
#X connect 6 0 5 0;
#X connect 7 0 1 1;
#X connect 7 0 2 1;
#X connect 8 0 4 0;
#X connect 9 0 8 0;
#X connect 10 0 9 0;
#X connect 11 0 6 0;
#X connect 12 0 11 0;
