#N canvas 584 171 580 466 10;
#X obj 153 70 adc~;
#X obj 140 217 *~;
#X obj 179 217 *~;
#X obj 85 374 dac~;
#X obj 225 153 osc~;
#X obj 291 142 sig~;
#X obj 291 122 dbtorms;
#X obj 225 182 *~;
#X obj 225 128 +~ 1000;
#X obj 225 102 *~ 50;
#X obj 225 71 osc~ 1;
#X floatatom 291 102 5 0 0 0 - - -;
#X obj 288 70 r mag;
#X obj -93 255 delwrite~ blarg0 500;
#X obj 36 256 delwrite~ blarg1 500;
#X obj -107 103 delread~ blarg0 500;
#X obj 16 103 delread~ blarg1 500;
#X obj 85 346 +~;
#X obj 125 347 +~;
#X obj 16 124 *~ 0.35;
#X obj -107 125 *~ 0.35;
#X connect 0 0 1 0;
#X connect 0 1 2 0;
#X connect 1 0 17 1;
#X connect 1 0 13 0;
#X connect 2 0 18 1;
#X connect 2 0 14 0;
#X connect 4 0 7 0;
#X connect 5 0 7 1;
#X connect 6 0 5 0;
#X connect 7 0 1 1;
#X connect 7 0 2 1;
#X connect 8 0 4 0;
#X connect 9 0 8 0;
#X connect 10 0 9 0;
#X connect 11 0 6 0;
#X connect 12 0 11 0;
#X connect 15 0 20 0;
#X connect 16 0 19 0;
#X connect 17 0 3 0;
#X connect 18 0 3 1;
#X connect 19 0 14 0;
#X connect 19 0 18 0;
#X connect 20 0 13 0;
#X connect 20 0 17 0;
