#N canvas 805 300 665 638 10;
#X obj 113 82 loadbang;
#X obj 87 512 lrshift~ -1;
#X obj 316 506 lrshift~ 2;
#X obj 195 568 dac~;
#X obj 99 477 *~ 1;
#X obj 99 430 *~ 0.2;
#X obj 185 445 r left;
#X obj 313 468 *~ 1;
#X obj 282 429 *~ 0.2;
#X obj 393 441 r right;
#X obj 114 183 soundfiler;
#X msg 115 215 bang;
#X obj 252 296 t b;
#X obj 115 254 tabplay~ sampleArray;
#X msg 113 147 read -resize Banjo_B3.wav sampleArray;
#X obj 340 229 table sampleArray;
#X obj -35 257 print patch loaded;
#X obj 137 488 print left output toggled;
#X obj 388 480 print right output toggled;
#X connect 0 0 14 0;
#X connect 1 0 3 0;
#X connect 2 0 3 1;
#X connect 4 0 1 0;
#X connect 5 0 4 0;
#X connect 6 0 4 1;
#X connect 6 0 17 0;
#X connect 7 0 2 0;
#X connect 8 0 7 0;
#X connect 9 0 7 1;
#X connect 9 0 18 0;
#X connect 10 0 11 0;
#X connect 11 0 13 0;
#X connect 11 0 16 0;
#X connect 12 0 13 0;
#X connect 13 0 5 0;
#X connect 13 0 8 0;
#X connect 13 1 12 0;
#X connect 14 0 10 0;
