#N canvas 756 360 387 277 10;
#X obj 53 30 inlet;
#X obj 52 102 until;
#X obj 79 176 sel \$2;
#X obj 103 103 \$1;
#X obj 52 141 int;
#X obj 53 237 outlet;
#X obj 53 55 t b b;
#X obj 112 208 + 1;
#X text 122 66 \$2 - number of iterations;
#X text 122 45 \$1 - starting number;
#X text 122 5 simple forward for loop \, incrementing by 1;
#X obj 168 134 inlet;
#X text 205 136 optional number of iterations;
#X connect 0 0 6 0;
#X connect 1 0 4 0;
#X connect 2 0 1 1;
#X connect 2 1 4 1;
#X connect 2 1 7 0;
#X connect 2 1 5 0;
#X connect 3 0 4 1;
#X connect 4 0 2 0;
#X connect 6 0 1 0;
#X connect 6 1 3 0;
#X connect 7 0 4 1;
#X connect 11 0 2 1;
