#N canvas 604 147 606 456 10;
#X obj 91 73 mtof;
#X obj 91 42 r pitch;
#X obj 91 132 dac~;
#X obj 24 155 loadbang;
#X obj 19 34 loadbang;
#X msg 19 55 60;
#X msg 57 311 cosinesum 256 0.2 -0.2 0.2 -0.2 0.2 -0.2 0.2;
#N canvas 269 455 450 300 print-array 0;
#X obj 62 126 t f f;
#X msg 58 207 \$1 \$2;
#X obj 58 185 pack f f;
#X obj 58 78 for 0 8;
#X floatatom 118 70 5 0 0 0 - - -;
#X obj 58 11 r \$0-print-table;
#X obj 97 46 r \$0-table-size;
#X obj 90 162 tabread \$0-array;
#X obj 49 239 print $-array;
#X connect 0 0 2 0;
#X connect 0 1 7 0;
#X connect 1 0 8 0;
#X connect 2 0 1 0;
#X connect 3 0 0 0;
#X connect 5 0 3 0;
#X connect 6 0 3 1;
#X connect 6 0 4 0;
#X connect 7 0 2 1;
#X restore 256 282 pd print-array;
#X msg 47 285 sinesum \$1 1;
#X obj 72 237 s \$0-table-size;
#X obj 72 212 + 3;
#X text 101 212 interpolation points;
#X msg 44 180 256;
#X obj 229 53 table \$0-array 256;
#X obj 91 102 tabosc4~ \$0-array;
#X obj 26 338 s \$0-array;
#X connect 0 0 14 0;
#X connect 1 0 0 0;
#X connect 3 0 12 0;
#X connect 4 0 5 0;
#X connect 5 0 0 0;
#X connect 8 0 15 0;
#X connect 10 0 9 0;
#X connect 12 0 8 0;
#X connect 12 0 10 0;
#X connect 14 0 2 0;
#X connect 14 0 2 1;
