#N canvas 604 147 436 280 10;
#X obj 31 53 mtof;
#X obj 31 82 tabosc4~ \$0-array;
#N canvas 0 22 236 256 output~ 0;
#X obj 35 171 dac~;
#X obj 35 137 *~;
#X obj 88 115 line~;
#X obj 88 83 pack 0 30;
#X obj 35 87 inlet~;
#X obj 88 26 r \$0-volume;
#X obj 88 53 dbtorms;
#X connect 1 0 0 0;
#X connect 1 0 0 1;
#X connect 2 0 1 1;
#X connect 3 0 2 0;
#X connect 4 0 1 0;
#X connect 5 0 6 0;
#X connect 6 0 3 0;
#X restore 31 107 pd output~;
#N canvas 110 439 450 300 init 0;
#X obj 85 207 s \$0-table-size;
#X obj 85 182 + 3;
#X text 114 182 interpolation points;
#X msg 37 150 256;
#X obj 37 268 s \$0-array;
#X msg 37 241 cosinesum \$1 0.2 -0.2 0.2 -0.2 0.2 -0.2 0.2 \, normalize
;
#X msg 95 93 60;
#X obj 37 66 bng 15 250 50 0 empty empty empty 17 7 0 10 -262144 -1
-1;
#X obj 37 31 loadbang;
#X obj 97 31 r reset;
#X obj 95 117 s \$0-pitch;
#X obj 190 114 s \$0-volume;
#X msg 190 92 85;
#X connect 1 0 0 0;
#X connect 3 0 1 0;
#X connect 3 0 5 0;
#X connect 5 0 4 0;
#X connect 6 0 10 0;
#X connect 7 0 6 0;
#X connect 7 0 12 0;
#X connect 7 0 3 0;
#X connect 8 0 7 0;
#X connect 9 0 7 0;
#X connect 12 0 11 0;
#X restore 332 87 pd init;
#X obj 31 22 r \$0-pitch;
#X text 96 178 - reakinator@gmail.com;
#X obj 269 22 table \$0-array 259;
#X obj 270 53 util/print-array \$0;
#X text 28 165 This patch is part of the libpd/pd-for-ios example WaveTables
;
#X connect 0 0 1 0;
#X connect 1 0 2 0;
#X connect 4 0 0 0;
