#N canvas 544 67 493 293 10;
#X obj 94 31 osc~ 440;
#X obj 93 81 dac~;
#X obj 91 229 s test-value;
#X obj 92 144 metro 1000;
#X obj 92 118 loadbang;
#X obj 91 178 f 0;
#X obj 123 179 + 1;
#X obj 93 52 *~ 0.1;
#X obj 155 181 print this-is-the-polled-thread;
#X connect 0 0 7 0;
#X connect 3 0 5 0;
#X connect 4 0 3 0;
#X connect 4 0 8 0;
#X connect 5 0 2 0;
#X connect 5 0 6 0;
#X connect 6 0 5 1;
#X connect 7 0 1 0;
#X connect 7 0 1 1;
