#N canvas 544 67 475 289 10;
#X obj 94 31 osc~ 440;
#X obj 104 131 dac~;
#X obj 104 102 *~;
#X obj 157 78 sig~;
#X obj 157 58 dbtorms;
#X obj 157 31 r mag;
#X obj 279 207 s test-value;
#X obj 280 122 metro 1000;
#X obj 280 96 loadbang;
#X obj 279 156 f 0;
#X obj 311 157 + 1;
#X connect 0 0 2 0;
#X connect 2 0 1 0;
#X connect 2 0 1 1;
#X connect 3 0 2 1;
#X connect 4 0 3 0;
#X connect 5 0 4 0;
#X connect 7 0 9 0;
#X connect 8 0 7 0;
#X connect 9 0 6 0;
#X connect 9 0 10 0;
#X connect 10 0 9 1;
