#N canvas 655 297 450 300 10;
#X obj 72 32 loadbang;
#X obj 72 85 tgl 15 0 empty empty empty 17 7 0 10 -262144 -1 -1 0 1
;
#X obj 72 107 route 0 1;
#X obj 235 55 osc~ 220;
#X obj 233 93 dac~;
#X obj 133 161 s bar;
#X obj 40 169 s foo;
#X obj 72 57 metro 1000;
#X msg 38 140 bla 1 blub 3;
#X obj 125 133 symbol hund;
#X connect 0 0 7 0;
#X connect 1 0 2 0;
#X connect 2 0 8 0;
#X connect 2 1 9 0;
#X connect 3 0 4 0;
#X connect 3 0 4 1;
#X connect 7 0 1 0;
#X connect 8 0 6 0;
#X connect 9 0 5 0;
