#N canvas 762 139 470 652 10;
#N canvas 58 40 781 654 16x 0;
#X obj 69 345 *~ 0.064;
#X obj 69 368 rpole~ 0.93538;
#X obj 69 391 *~ 0.00431;
#X obj 69 414 cpole~ 0.96559 0.05592;
#X obj 69 440 cpole~ 0.96559 -0.05592;
#X obj 69 463 *~ 0.125;
#X obj 69 486 rzero~ -1;
#X obj 69 509 rzero~ -1;
#X obj 69 532 rzero~ -1;
#X obj 70 97 phasor~;
#X obj 69 566 outlet~;
#X obj 93 151 wrap~;
#X obj 93 127 -~;
#X obj 93 175 *~;
#X obj 70 204 +~;
#X obj 271 156 phasor~;
#X obj 294 210 wrap~;
#X obj 294 186 -~;
#X obj 294 234 *~;
#X obj 271 263 +~;
#X obj 69 311 +~;
#X obj 250 34 r osc-params;
#X obj 250 57 unpack 0 0 0 0 0 0;
#X obj 272 100 *~;
#X obj 272 128 +~;
#X msg 341 338 \; osc-params 0.5 -0.5 0.5 0.5 1 0.5;
#X obj 341 312 loadbang;
#X text 433 33 Problem: I had to remove the block~ 1024 for use with
libpd;
#X obj 69 29 inlet~;
#X connect 0 0 1 0;
#X connect 1 0 2 0;
#X connect 2 0 3 0;
#X connect 3 0 4 0;
#X connect 3 1 4 1;
#X connect 4 0 5 0;
#X connect 5 0 6 0;
#X connect 6 0 7 0;
#X connect 7 0 8 0;
#X connect 8 0 10 0;
#X connect 9 0 12 0;
#X connect 9 0 14 0;
#X connect 11 0 13 0;
#X connect 12 0 11 0;
#X connect 13 0 14 1;
#X connect 14 0 20 0;
#X connect 15 0 17 0;
#X connect 15 0 19 0;
#X connect 16 0 18 0;
#X connect 17 0 16 0;
#X connect 18 0 19 1;
#X connect 19 0 20 1;
#X connect 20 0 0 0;
#X connect 21 0 22 0;
#X connect 22 0 12 1;
#X connect 22 1 13 1;
#X connect 22 2 17 1;
#X connect 22 3 18 1;
#X connect 22 4 23 1;
#X connect 22 5 24 1;
#X connect 23 0 24 0;
#X connect 24 0 15 0;
#X connect 26 0 25 0;
#X connect 28 0 9 0;
#X connect 28 0 23 0;
#X restore 66 185 pd 16x;
#X obj 66 360 vcf~ 3;
#X obj 214 304 line~;
#X obj 115 482 dac~;
#X obj 130 419 line~;
#X obj 130 390 pack 0 40;
#X obj 115 449 *~;
#X obj 215 226 *;
#X obj 232 194 t b f;
#X obj 215 280 pack f 150;
#X obj 157 186 * 50;
#X floatatom 244 253 5 0 0 0 - - -;
#X obj 234 86 r vcf-cutoff;
#X obj 250 133 loadbang;
#X msg 250 159 50;
#X obj 35 49 mtof;
#X obj 36 84 pack f 30;
#X obj 36 110 line~;
#X obj 88 49 r synth-freq-ramptime;
#X obj 36 13 r \$0-synth-freq;
#X obj 129 128 r \$0-synth-mag;
#X text 18 573 https://github.com/libpd/pd-for-ios;
#X text 17 596 For information on usage and redistribution \, see the
license included with Pure Data.;
#N canvas 165 535 450 300 test 0;
#X floatatom 22 123 5 0 0 0 - - -;
#X floatatom 126 122 5 0 0 0 - - -;
#X floatatom 60 206 5 0 0 0 - - -;
#X msg 336 30 \; pd dsp 1;
#X msg 336 67 \; pd dsp 0;
#X msg 126 94 500;
#X msg 89 92 0.9;
#X obj 55 181 hsl 128 15 0 1 0 0 empty empty empty -2 -8 0 10 -262144
-1 -1 0 0;
#X obj 22 34 bng 15 250 50 0 empty empty empty 17 7 0 10 -262144 -1
-1;
#X obj 22 11 loadbang;
#X obj 126 151 s vcf-cutoff;
#X msg 22 91 40;
#X msg 53 91 46;
#X msg 229 94 75;
#X floatatom 228 121 5 0 0 0 - - -;
#X obj 234 154 s synth-freq-ramptime;
#X obj 23 152 s \$0-synth-freq;
#X obj 54 224 s \$0-synth-mag;
#X connect 0 0 16 0;
#X connect 1 0 10 0;
#X connect 5 0 1 0;
#X connect 6 0 7 0;
#X connect 7 0 2 0;
#X connect 7 0 17 0;
#X connect 8 0 11 0;
#X connect 8 0 6 0;
#X connect 8 0 5 0;
#X connect 9 0 8 0;
#X connect 9 0 13 0;
#X connect 11 0 0 0;
#X connect 12 0 0 0;
#X connect 13 0 14 0;
#X connect 14 0 15 0;
#X restore 339 56 pd test;
#X text 19 527 This pd patch has been adapted from pd's own help file
'J08.classicsynth.pd' for use with SlidePad \, an iOS app within the
pd-for-ios collection \, powered by libpd.;
#X connect 0 0 1 0;
#X connect 1 0 6 0;
#X connect 2 0 1 1;
#X connect 4 0 6 1;
#X connect 5 0 4 0;
#X connect 6 0 3 0;
#X connect 6 0 3 1;
#X connect 7 0 9 0;
#X connect 7 0 11 0;
#X connect 8 0 7 0;
#X connect 8 1 7 1;
#X connect 9 0 2 0;
#X connect 10 0 7 0;
#X connect 12 0 8 0;
#X connect 13 0 14 0;
#X connect 14 0 8 0;
#X connect 15 0 16 0;
#X connect 16 0 17 0;
#X connect 17 0 0 0;
#X connect 18 0 16 1;
#X connect 19 0 15 0;
#X connect 20 0 5 0;
#X connect 20 0 10 0;
