#N canvas 690 251 629 451 10;
#X obj 280 396 dac~;
#X obj 414 53 r \$0-pitch;
#X obj 184 6 loadbang;
#X obj 281 282 line~;
#X obj 281 305 cos~;
#X msg 282 135 -0.25 \, 0.25 100;
#X obj 331 48 loadbang;
#X msg 331 71 -0.25;
#X obj 281 351 *~;
#X floatatom 451 126 0 0 0 0 - - -;
#X obj 437 178 osc~ 440;
#X obj 437 155 mtof;
#X obj 281 328 *~ 0.1;
#X obj 437 213 *~;
#X obj 458 244 *~;
#X obj 421 244 *~;
#X obj 184 54 metro 2000;
#X msg 185 32 1;
#X msg 215 33 0;
#N canvas 477 131 450 300 hexatonic-scale 0;
#X obj 27 14 inlet;
#X obj 25 243 outlet;
#X obj 27 53 + 40;
#X obj 171 120 random 6;
#X obj 178 99 bng 15 250 50 0 empty empty empty 17 7 0 10 -262144 -1
-1;
#X obj 201 155 select 0 1 2 3 4 5;
#X msg 201 192;
#X text 164 68 TODO: only select hexatonic pitches;
#X connect 0 0 2 0;
#X connect 2 0 1 0;
#X connect 3 0 5 0;
#X connect 4 0 3 0;
#X restore 419 93 pd hexatonic-scale;
#X connect 1 0 19 0;
#X connect 2 0 17 0;
#X connect 3 0 4 0;
#X connect 4 0 12 0;
#X connect 5 0 3 0;
#X connect 6 0 7 0;
#X connect 7 0 3 0;
#X connect 8 0 0 0;
#X connect 8 0 0 1;
#X connect 9 0 11 0;
#X connect 10 0 8 1;
#X connect 10 0 13 0;
#X connect 10 0 13 1;
#X connect 10 0 14 0;
#X connect 11 0 10 0;
#X connect 12 0 8 0;
#X connect 13 0 14 1;
#X connect 13 0 8 1;
#X connect 13 0 15 0;
#X connect 13 0 15 1;
#X connect 14 0 8 1;
#X connect 15 0 8 1;
#X connect 16 0 5 0;
#X connect 17 0 16 0;
#X connect 18 0 16 0;
#X connect 19 0 11 0;
