#N canvas 1090 250 499 462 10;
#X obj 145 407 dac~;
#X obj 279 64 r \$0-pitch;
#X obj 49 17 loadbang;
#X obj 146 293 line~;
#X obj 146 316 cos~;
#X msg 147 146 -0.25 \, 0.25 100;
#X obj 196 59 loadbang;
#X msg 196 82 -0.25;
#X obj 146 362 *~;
#X floatatom 298 83 0 0 0 0 - - -;
#X obj 302 189 osc~ 440;
#X obj 146 339 *~ 0.1;
#X obj 302 224 *~;
#X obj 323 255 *~;
#X obj 286 255 *~;
#X obj 49 65 metro 2000;
#X msg 50 43 1;
#X msg 80 44 0;
#N canvas 477 131 236 291 hexatonic-scale 0;
#X obj 27 14 inlet;
#X obj 25 243 outlet;
#X obj 26 44 + 40;
#X obj 25 221 mtof;
#X obj 27 79 t f f;
#X obj 25 191 f;
#X obj 16 121 mod 12;
#X obj 17 145 select 0 2 4 7 9 11;
#X connect 0 0 2 0;
#X connect 2 0 4 0;
#X connect 3 0 1 0;
#X connect 4 0 6 0;
#X connect 4 1 5 1;
#X connect 5 0 3 0;
#X connect 6 0 7 0;
#X connect 7 0 5 0;
#X connect 7 1 5 0;
#X connect 7 2 5 0;
#X connect 7 3 5 0;
#X connect 7 4 5 0;
#X connect 7 5 5 0;
#X restore 284 104 pd hexatonic-scale;
#N canvas 693 530 450 300 test 0;
#X obj 143 161 s \$0-pitch;
#X obj 146 46 metro 500;
#X obj 146 21 tgl 15 0 empty empty empty 17 7 0 10 -262144 -1 -1 1
1;
#X obj 145 69 random 30;
#X connect 1 0 3 0;
#X connect 2 0 1 0;
#X connect 3 0 0 0;
#X restore 272 385 pd test;
#X floatatom 114 45 5 0 0 0 - - -;
#X connect 1 0 18 0;
#X connect 2 0 16 0;
#X connect 3 0 4 0;
#X connect 4 0 11 0;
#X connect 5 0 3 0;
#X connect 6 0 7 0;
#X connect 7 0 3 0;
#X connect 8 0 0 0;
#X connect 8 0 0 1;
#X connect 9 0 18 0;
#X connect 10 0 8 1;
#X connect 10 0 12 0;
#X connect 10 0 12 1;
#X connect 10 0 13 0;
#X connect 11 0 8 0;
#X connect 12 0 13 1;
#X connect 12 0 8 1;
#X connect 12 0 14 0;
#X connect 12 0 14 1;
#X connect 13 0 8 1;
#X connect 14 0 8 1;
#X connect 15 0 5 0;
#X connect 16 0 15 0;
#X connect 17 0 15 0;
#X connect 18 0 10 0;
#X connect 20 0 15 1;
